<?xml version="1.0" standalone="no"?>
<!DOCTYPE svg PUBLIC "-//W3C//DTD SVG 20010904//EN"
 "http://www.w3.org/TR/2001/REC-SVG-20010904/DTD/svg10.dtd">
<svg version="1.0" xmlns="http://www.w3.org/2000/svg"
 width="1200.000000pt" height="1200.000000pt" viewBox="0 0 1200.000000 1200.000000"
 preserveAspectRatio="xMidYMid meet">

<g transform="translate(0.000000,1200.000000) scale(0.100000,-0.100000)"
fill="#000000" stroke="none">
<path d="M4880 8492 c-25 -11 -81 -40 -125 -66 -44 -25 -85 -46 -92 -46 -6 0
-36 -27 -66 -60 -70 -78 -135 -211 -187 -381 -48 -160 -60 -223 -59 -309 1
-36 -11 -132 -25 -215 -35 -205 -42 -290 -26 -319 9 -18 10 -64 1 -212 -28
-487 -3 -859 87 -1277 25 -118 30 -129 56 -142 16 -8 55 -40 89 -71 69 -64 90
-74 158 -74 31 0 65 -8 90 -21 33 -16 52 -19 97 -14 209 22 281 49 342 126 79
100 132 246 146 403 6 71 6 75 -20 101 -48 47 -57 35 -96 -130 -60 -251 -105
-319 -245 -370 l-76 -27 -38 25 c-22 15 -51 29 -66 33 -14 3 -32 18 -39 33
-23 44 -74 290 -86 409 -17 163 -6 1000 14 1147 9 61 15 156 16 212 0 67 9
148 25 230 13 71 29 175 35 233 17 168 69 409 96 452 35 55 170 166 216 179
47 12 117 4 176 -22 61 -26 72 -60 71 -203 -1 -126 11 -169 48 -174 17 -2 24
3 27 20 21 103 22 434 1 485 -15 36 -61 71 -75 57 -5 -5 -10 -34 -12 -65 l-3
-57 -123 61 c-115 57 -127 61 -205 64 -63 2 -92 -1 -127 -15z"/>
<path d="M8763 8435 c-231 -64 -327 -333 -189 -525 20 -27 36 -53 36 -56 0 -3
-79 -140 -176 -304 l-175 -298 -72 26 c-62 22 -90 26 -197 26 -116 1 -132 -1
-212 -30 -49 -18 -117 -51 -153 -74 l-65 -42 -150 142 c-82 79 -150 143 -150
144 0 0 9 26 21 56 31 81 29 181 -5 257 -35 76 -104 145 -178 178 -53 24 -70
27 -146 23 -68 -2 -98 -9 -137 -28 -65 -33 -127 -97 -161 -167 -23 -47 -28
-69 -28 -137 -1 -96 27 -167 93 -239 92 -100 259 -132 383 -75 l57 27 151
-142 c82 -77 150 -144 150 -148 0 -3 -15 -31 -33 -62 -67 -110 -103 -274 -88
-397 5 -36 8 -66 7 -67 -1 -1 -141 -50 -311 -108 l-310 -105 -45 49 c-56 60
-99 86 -177 106 -203 52 -414 -112 -415 -323 -1 -125 51 -221 157 -294 140
-94 338 -63 444 72 46 59 69 114 79 194 l7 59 305 103 c168 57 308 103 312
104 4 0 19 -23 34 -52 15 -29 61 -86 108 -132 127 -126 269 -186 447 -189 l86
-1 59 -260 c40 -180 55 -261 47 -263 -33 -11 -97 -69 -127 -115 -113 -172 -47
-402 142 -495 49 -24 69 -28 142 -28 104 0 176 29 243 99 73 77 92 125 92 236
0 85 -3 101 -30 153 -52 105 -173 187 -273 187 l-38 0 -53 243 c-29 133 -55
251 -57 262 -4 16 7 26 63 52 136 65 247 181 312 325 16 34 32 78 36 96 6 30
9 32 38 28 18 -3 129 -15 247 -26 118 -12 225 -23 236 -25 16 -4 24 -15 29
-42 17 -93 93 -186 188 -229 105 -48 236 -37 333 29 53 36 116 120 134 181 45
151 -35 323 -185 393 -51 24 -73 28 -145 28 -72 0 -93 -4 -141 -27 -70 -35
-122 -85 -154 -149 -17 -32 -32 -49 -44 -49 -75 0 -507 53 -513 63 -4 7 -8 26
-8 42 -1 117 -74 276 -177 385 -40 43 -73 80 -73 82 0 3 78 137 174 299 155
263 176 294 197 292 13 -2 53 -3 89 -4 243 -3 410 252 311 477 -64 144 -247
232 -398 189z"/>
<path d="M3077 8340 c-105 -66 -167 -147 -272 -355 -83 -164 -99 -212 -121
-360 -9 -60 -27 -155 -40 -210 -61 -249 -90 -623 -64 -818 10 -78 10 -125 0
-246 -14 -161 -9 -250 30 -591 17 -140 29 -199 85 -390 44 -151 76 -241 97
-272 46 -74 179 -192 256 -230 65 -32 71 -33 187 -32 156 1 245 28 376 115 49
34 92 60 93 58 2 -2 19 -29 38 -59 38 -59 97 -101 205 -146 81 -33 118 -31
154 7 16 17 29 39 29 49 0 28 -39 50 -90 50 -62 0 -139 40 -191 98 -75 86 -87
151 -43 246 14 31 30 89 36 128 5 40 19 89 29 111 11 21 31 91 44 155 51 248
75 578 75 1022 -1 437 -25 760 -76 1017 -42 212 -135 466 -199 541 -56 66
-190 111 -394 132 -165 16 -191 14 -244 -20z m462 -155 c81 -36 96 -55 151
-183 118 -278 170 -671 170 -1287 0 -517 -32 -876 -105 -1185 -31 -127 -74
-260 -85 -260 -4 0 -39 12 -76 26 -146 55 -266 2 -409 -180 l-30 -39 -27 49
c-54 101 -126 324 -138 430 -12 112 -5 1103 10 1434 9 190 11 203 80 505 106
466 129 539 203 648 64 96 116 105 256 42z m31 -3020 c17 -9 30 -20 30 -24 0
-14 -80 -80 -125 -103 -24 -13 -67 -23 -107 -26 l-68 -5 0 33 c0 26 9 42 43
75 65 62 163 83 227 50z"/>
<path d="M8234 4235 c-60 -60 -93 -198 -94 -385 l0 -116 -34 4 c-45 5 -72 -11
-95 -56 -29 -57 -153 -142 -206 -142 -26 0 -55 38 -55 74 0 54 19 96 44 96 27
0 66 27 66 45 0 19 -32 35 -70 35 -23 0 -40 -9 -61 -31 -16 -17 -29 -37 -29
-44 0 -18 -24 -25 -88 -25 -93 0 -102 5 -102 57 0 52 -23 97 -57 112 -61 28
-122 -3 -109 -54 9 -36 49 -71 104 -91 26 -10 49 -19 50 -20 14 -10 -77 -216
-92 -211 -7 2 -12 49 -14 125 -3 120 -3 122 -26 122 -12 0 -31 -9 -40 -19 -19
-20 -86 -41 -135 -41 l-31 0 0 68 c0 107 -43 160 -122 149 -74 -10 -108 -72
-78 -139 9 -19 5 -33 -19 -78 -42 -77 -146 -198 -177 -206 -49 -12 -74 46 -74
171 l0 82 56 69 c164 200 210 314 147 364 -22 18 -37 21 -73 17 -37 -4 -51
-12 -82 -46 -125 -142 -157 -532 -52 -642 54 -56 94 -36 207 101 34 42 37 43
37 20 0 -56 55 -110 112 -110 30 0 86 64 101 118 l14 47 54 7 c30 4 67 11 82
17 16 6 30 11 33 11 2 0 4 -24 4 -52 1 -100 30 -178 67 -178 20 0 71 87 94
160 l19 65 90 0 90 0 0 -28 c0 -61 58 -127 112 -127 36 0 77 20 146 71 l52 40
0 -36 c0 -40 36 -85 68 -85 18 0 82 58 82 75 0 5 -14 -7 -31 -28 -38 -46 -56
-47 -65 -3 -11 64 22 166 55 166 26 0 41 -28 41 -77 0 -48 44 -170 72 -200 12
-13 29 -23 39 -23 30 0 136 136 193 248 28 54 10 36 -24 -25 -43 -76 -136
-199 -156 -207 -9 -3 -20 -4 -24 -1 -14 9 -29 65 -39 149 l-9 79 43 87 c106
211 155 430 106 479 -30 30 -85 28 -117 -4z m112 -12 c41 -42 -13 -273 -107
-452 l-40 -76 6 148 c10 289 70 450 141 380z m-1458 -79 c40 -28 23 -101 -54
-221 -45 -71 -135 -185 -141 -180 -6 7 24 186 43 247 30 101 76 170 114 170 8
0 26 -7 38 -16z m232 -309 c20 -21 25 -39 28 -95 l4 -70 -26 0 c-15 0 -41 7
-57 16 -24 12 -28 18 -19 29 15 18 3 38 -20 32 -21 -5 -34 29 -23 60 20 57 74
70 113 28z m355 -10 c19 -18 25 -35 25 -70 0 -49 -6 -53 -48 -31 -77 40 -94
126 -25 126 13 0 35 -11 48 -25z m375 -70 c0 -16 -30 -35 -55 -35 -14 0 -14 2
1 25 18 27 54 34 54 10z m-744 -92 c40 -5 42 -7 34 -33 -39 -136 -164 -183
-147 -55 9 63 34 108 55 100 9 -3 35 -9 58 -12z"/>
<path d="M6031 4226 c-34 -19 -79 -90 -100 -160 l-19 -61 -59 -7 c-33 -3 -77
-14 -98 -22 l-37 -16 7 38 c3 20 9 47 12 59 3 16 0 25 -11 29 -23 9 -24 6 -44
-67 l-17 -64 -46 -3 c-56 -4 -100 25 -91 60 3 14 2 19 -6 14 -20 -12 -13 -33
19 -60 23 -20 42 -26 76 -26 34 0 44 -3 40 -14 -3 -7 -14 -63 -23 -122 l-18
-109 -92 -92 c-135 -137 -152 -129 -114 52 10 50 15 94 10 98 -15 16 -50 -4
-57 -31 -8 -36 -19 -42 -83 -42 -83 0 -100 7 -100 42 0 36 -24 84 -49 98 -29
15 -87 12 -105 -6 -19 -18 -19 -17 -4 -49 10 -22 71 -59 131 -79 9 -3 17 -14
17 -24 0 -26 -30 -136 -40 -146 -12 -12 -29 25 -43 96 -11 56 -16 63 -38 66
-33 4 -39 -4 -89 -123 -22 -55 -47 -107 -55 -115 -13 -12 -15 -11 -15 15 0 17
7 86 15 155 8 73 11 128 6 133 -6 6 -21 5 -38 0 -26 -9 -29 -15 -36 -74 -10
-85 -2 -195 18 -225 33 -50 59 -26 114 106 37 88 40 92 47 65 17 -76 87 -136
119 -104 14 14 45 118 45 149 0 12 15 15 87 15 l88 0 -3 -60 c-3 -73 13 -109
50 -113 23 -3 43 12 118 84 l90 87 0 -74 c0 -120 25 -179 75 -179 27 0 71 46
151 161 l58 82 12 -71 c19 -115 27 -116 79 -8 35 74 70 126 85 126 4 0 6 -53
3 -117 -5 -129 5 -165 44 -171 30 -4 105 90 197 251 50 87 19 48 -49 -61 -72
-117 -129 -191 -140 -180 -3 3 -1 52 6 107 17 143 -6 211 -61 181 -27 -14 -65
-67 -92 -126 l-23 -49 -3 109 c-3 103 -1 111 21 135 90 96 195 285 204 365 5
38 2 45 -22 64 -31 25 -87 28 -124 8z m124 -19 c26 -20 15 -81 -33 -180 -39
-80 -158 -254 -168 -244 -9 8 26 215 47 279 28 84 43 112 75 137 31 24 53 26
79 8z m-249 -239 c-4 -13 -9 -84 -13 -158 -7 -152 -6 -150 -115 -292 -56 -72
-90 -99 -106 -83 -15 15 -4 236 17 371 l23 141 56 21 c32 11 77 21 101 21 40
1 43 -1 37 -21z m-766 -168 c22 -22 33 -58 28 -89 l-3 -20 -45 20 c-51 23 -60
33 -60 71 0 41 46 52 80 18z"/>
<path d="M9965 4232 c-5 -4 -8 -27 -5 -52 6 -51 16 -43 26 18 6 40 0 50 -21
34z"/>
<path d="M2042 4197 c-88 -28 -185 -163 -213 -295 -17 -84 -7 -255 19 -323 42
-106 143 -189 231 -189 48 0 118 48 199 136 l68 74 12 -34 c16 -44 42 -66 86
-73 32 -5 40 -2 71 31 19 21 41 58 48 84 l14 47 58 7 c31 4 71 14 88 23 16 8
32 15 34 15 1 0 3 -20 3 -43 0 -46 31 -91 49 -71 5 5 25 59 45 119 60 181 85
190 61 24 -8 -57 -15 -125 -15 -150 0 -88 36 -143 79 -120 28 16 173 187 195
231 4 8 -3 2 -16 -15 -129 -166 -184 -223 -199 -208 -4 4 -1 51 7 103 26 178
15 281 -32 288 -29 4 -50 -31 -89 -147 l-32 -96 -7 65 c-8 76 -16 93 -42 88
-14 -2 -19 -12 -19 -33 0 -36 -31 -54 -110 -62 l-55 -6 0 69 c0 109 -43 162
-122 151 -74 -10 -108 -72 -77 -140 9 -19 7 -30 -10 -58 -12 -19 -21 -41 -21
-50 0 -25 -107 -147 -172 -194 -45 -34 -69 -45 -97 -45 -67 0 -111 45 -143
145 -28 87 -31 272 -5 376 48 196 148 303 251 269 52 -17 66 -43 66 -120 0
-48 -7 -79 -25 -118 -24 -52 -26 -53 -62 -50 -35 3 -38 6 -38 33 0 17 -4 31
-10 33 -17 5 -17 -28 -1 -53 13 -20 25 -25 55 -25 92 0 147 147 95 251 -28 56
-137 84 -222 56z m498 -362 c20 -21 25 -39 28 -95 l4 -70 -26 0 c-15 0 -41 7
-57 16 -24 12 -28 18 -19 29 15 18 3 38 -20 32 -21 -5 -34 29 -23 60 20 57 74
70 113 28z m-14 -172 c40 -5 42 -7 34 -33 -39 -136 -164 -183 -147 -55 9 63
34 108 55 100 9 -3 35 -9 58 -12z"/>
<path d="M4350 4048 c-24 -95 -23 -93 -71 -96 -56 -4 -100 25 -91 60 3 14 2
19 -6 14 -20 -12 -13 -33 19 -60 23 -19 42 -26 75 -26 41 0 44 -2 39 -22 -3
-13 -14 -69 -24 -125 -18 -102 -19 -104 -77 -170 -113 -129 -217 -184 -245
-131 -33 61 36 281 80 253 15 -8 14 -38 -1 -53 -8 -8 -8 -12 -1 -12 25 0 31
65 7 74 -48 18 -106 -9 -133 -62 -30 -60 -162 -152 -216 -152 -26 0 -55 38
-55 74 0 54 19 96 44 96 27 0 66 27 66 45 0 19 -32 35 -70 35 -37 0 -84 -43
-94 -86 -14 -55 -188 -256 -205 -238 -6 5 -4 45 5 104 26 178 15 281 -32 288
-29 4 -50 -31 -89 -147 l-32 -96 -7 65 c-8 76 -16 93 -42 88 -13 -3 -18 -11
-16 -28 12 -115 16 -130 33 -146 12 -11 23 -14 28 -8 5 5 25 59 45 119 60 181
85 190 61 24 -8 -57 -15 -125 -15 -150 0 -89 36 -143 80 -119 20 11 127 130
156 176 l17 25 13 -38 c17 -50 65 -93 105 -93 37 0 90 27 155 78 l49 39 -4
-44 c-6 -79 40 -143 102 -143 44 0 117 51 197 138 l70 76 0 -75 c0 -162 53
-224 127 -146 59 61 197 267 179 267 -2 0 -16 -21 -31 -47 -15 -27 -59 -89
-97 -140 -64 -85 -99 -115 -116 -98 -15 15 -4 236 17 371 l23 141 63 22 c66
24 140 25 140 4 0 -7 3 -13 8 -13 4 0 10 0 14 0 3 0 -2 9 -12 20 -23 26 -81
26 -153 1 l-53 -18 7 41 c12 65 10 80 -8 84 -13 2 -20 -8 -28 -40z m-600 -293
c0 -16 -30 -35 -55 -35 -14 0 -14 2 1 25 18 27 54 34 54 10z"/>
<path d="M8820 3883 c-53 -19 -75 -80 -49 -136 9 -19 7 -30 -10 -58 -52 -86 0
-199 91 -199 30 0 86 64 101 118 l14 47 58 7 c31 4 71 14 88 23 16 8 32 15 34
15 1 0 3 -20 3 -43 0 -46 31 -91 49 -71 5 5 25 59 45 119 60 181 85 190 61 24
-8 -57 -15 -125 -15 -150 0 -89 36 -143 80 -119 20 11 127 130 156 176 l17 25
13 -38 c18 -51 65 -93 107 -93 55 0 187 89 238 162 12 17 -8 1 -44 -35 -64
-62 -152 -117 -189 -117 -29 0 -58 37 -58 74 0 54 19 96 44 96 27 0 66 27 66
45 0 19 -32 35 -70 35 -37 0 -84 -43 -94 -86 -14 -55 -188 -256 -205 -238 -6
5 -4 45 5 104 26 178 15 281 -32 288 -29 4 -50 -31 -89 -147 l-32 -96 -7 65
c-8 76 -16 93 -42 88 -14 -2 -19 -12 -19 -33 0 -36 -31 -54 -110 -62 l-55 -6
0 67 c0 73 -16 115 -52 140 -22 16 -68 20 -98 9z m110 -48 c20 -21 25 -39 28
-95 l4 -70 -26 0 c-15 0 -41 7 -57 16 -24 12 -28 18 -19 29 15 18 3 38 -20 32
-21 -5 -34 29 -23 60 20 57 74 70 113 28z m780 -80 c0 -16 -30 -35 -55 -35
-14 0 -14 2 1 25 18 27 54 34 54 10z m-794 -92 c40 -5 42 -7 34 -33 -39 -136
-164 -183 -147 -55 9 63 34 108 55 100 9 -3 35 -9 58 -12z"/>
<path d="M5414 3849 c-8 -14 11 -33 25 -25 6 4 11 14 11 22 0 16 -26 19 -36 3z"/>
<path d="M10021 3834 c-27 -34 -26 -54 4 -139 13 -38 25 -79 25 -90 0 -12 -21
-38 -51 -64 -30 -26 -60 -63 -71 -89 -20 -44 -20 -45 -1 -71 42 -56 139 -25
178 56 18 35 25 125 14 162 -2 9 20 28 59 51 34 20 68 42 75 49 6 7 -23 -8
-65 -33 l-77 -45 -35 65 c-47 85 -47 154 1 154 19 0 16 -30 -7 -70 l-21 -35
21 24 c27 31 35 68 20 86 -19 23 -46 18 -69 -11z m20 -344 c-19 -65 -99 -126
-114 -87 -9 25 29 92 74 131 43 36 44 37 47 15 2 -13 -1 -39 -7 -59z"/>
</g>
</svg>
